<svg width="129" height="44" viewBox="0 0 129 44" fill="none" xmlns="http://www.w3.org/2000/svg">
<path d="M0.90242 21.7205C0.90242 10.6748 9.85673 1.72046 20.9024 1.72046H105.902C116.948 1.72046 125.902 10.6748 125.902 21.7205C125.902 32.7662 116.948 41.7205 105.902 41.7205H20.9024C9.85673 41.7205 0.90242 32.7662 0.90242 21.7205Z" fill="#F5F5F5"/>
<path d="M105.902 0.011488C107.018 -0.0249707 108.101 0.026357 109.13 0.151136C111.824 0.481856 114.131 1.1936 116.17 2.13356C117.264 2.64023 118.28 3.21777 119.232 3.86989C122.243 6.22367 125.805 8.56735 127.976 17.3377C128.257 18.7689 128.379 20.1652 128.349 21.7205C128.336 22.3146 128.3 22.9254 128.232 23.5759V23.5789C128.196 23.9143 128.152 24.2626 128.098 24.6189C127.627 27.4438 126.693 31.305 123.133 35.7156C119.112 40.5684 114.142 42.3176 111.277 42.8591C110.733 42.9574 110.174 43.0966 108.745 43.2781C108.026 43.3627 107.116 43.4455 105.902 43.4382C105.557 43.4355 105.186 43.4326 104.785 43.4295C103.883 43.4223 102.833 43.4143 101.605 43.4041C97.5365 43.3701 91.1608 43.3805 85.2862 43.3904C81.7206 43.3964 78.3382 43.402 75.7696 43.3972C72.0132 43.3902 68.3886 43.3592 64.4483 43.325C60.8396 43.2936 56.9656 43.2593 52.4835 43.24C49.0444 43.2252 45.7031 43.0986 42.3077 42.9568C41.8756 42.9388 41.4412 42.9205 41.0069 42.9021C38.0107 42.7756 34.9479 42.6462 31.6358 42.572C27.695 42.4838 24.2854 42.4793 20.9024 42.5037C19.1508 42.5152 17.4018 42.3208 15.6475 41.8865C13.5843 41.3732 11.5094 40.5279 9.48932 39.2283C6.27873 37.2468 2.35209 32.9999 0.85065 27.6668C0.718654 27.2191 0.601395 26.7653 0.500064 26.3103C0.499578 26.3081 0.499573 26.3057 0.499088 26.3035C0.159301 24.779 -0.00197758 23.2255 6.42678e-05 21.7205C-0.00848322 18.3779 0.836681 15.3116 1.8692 13.0525C4.40475 7.87471 6.41413 6.59555 7.69245 5.36598C8.21247 4.92641 8.712 4.5386 9.33405 4.11403C11.5439 2.56208 15.4395 0.868685 19.6124 0.668715C19.6282 0.667759 19.6444 0.666706 19.6602 0.665785C20.3486 0.626505 20.9068 0.772981 20.9024 0.945082C20.8966 1.11837 20.3496 1.25235 19.6846 1.29078C17.5507 1.4083 15.4947 1.87699 13.7491 2.53493C13.7086 2.70854 13.2851 2.98564 12.7413 3.22536C11.4991 3.8365 6.82248 5.81582 3.44635 12.1199C3.70303 11.7106 3.93353 11.3798 4.14362 11.0955C4.39027 10.7625 4.59036 10.5164 4.76471 10.3074C4.94738 10.0906 5.10136 9.91205 5.26471 9.72536L6.22956 8.63356C7.26178 7.50532 8.83987 6.05133 10.7559 4.9109C11.3063 4.57891 11.8333 4.46544 11.9092 4.61989C11.9862 4.7752 11.6001 5.13066 11.0704 5.45094C11.06 5.45723 11.0495 5.46415 11.0391 5.47047C8.94071 6.72239 7.19216 8.43239 6.1944 9.62379C5.93745 9.92517 5.72381 10.1925 5.56549 10.3943C5.43869 10.5554 5.28359 10.7593 5.1944 10.8709C5.18252 10.8857 5.15965 10.9139 5.1319 10.947L5.13092 10.949C5.11525 10.9677 5.03588 11.0619 4.94245 11.157C4.92352 11.1762 4.88225 11.2184 4.83014 11.2644C4.81953 11.2781 4.8085 11.2917 4.79792 11.3054C4.65029 11.4969 4.50266 11.6965 4.34967 11.9158C3.78948 12.7836 2.73838 14.1579 1.83991 17.5418C1.56537 18.6449 1.3315 20.0545 1.31061 21.7205C1.2609 24.7349 1.98956 28.6778 4.40241 32.3914C4.16258 31.9975 3.93594 31.5956 3.7237 31.1863C3.18994 30.1573 2.74446 29.0794 2.3985 27.9724C2.26564 27.5473 2.15035 27.126 2.04596 26.6912C1.87892 25.9942 1.7498 25.2862 1.66022 24.573C1.59997 24.0932 1.55665 23.6061 1.53229 23.1228V23.1199C1.50875 22.6522 1.50204 22.1915 1.51178 21.7205C1.51617 21.5104 1.5241 21.3006 1.53522 21.0916C1.54813 20.8551 1.56516 20.6212 1.586 20.3884C1.66984 19.4684 1.80979 18.5634 2.0694 17.5535C2.10277 17.4307 2.14137 17.2981 2.17194 17.2C2.2046 17.0944 2.23747 16.9933 2.2696 16.8982C2.298 16.814 2.32644 16.7343 2.35358 16.658C2.35722 16.6477 2.36067 16.637 2.36432 16.6267C2.39487 16.5413 2.42441 16.4596 2.45319 16.3816C2.48191 16.3038 2.50969 16.2286 2.53717 16.155L2.53815 16.1531C2.5668 16.0763 2.58874 16.0181 2.6192 15.9363C2.65747 15.8337 2.69054 15.7458 2.73053 15.6394C2.76924 15.5366 2.81007 15.4297 2.85163 15.322C2.89321 15.2143 2.93602 15.1042 2.98053 14.9929C3.02501 14.8817 3.07105 14.769 3.11823 14.656C3.16535 14.5432 3.21482 14.4291 3.26471 14.3152C3.31459 14.2013 3.36614 14.0862 3.41901 13.9714C3.54111 13.7062 3.6925 13.4687 3.836 13.3113C3.97925 13.1544 4.10108 13.0907 4.17194 13.1287C4.24273 13.1672 4.25787 13.3046 4.22077 13.5105C4.18323 13.7173 4.09787 13.9751 3.98639 14.2341C3.95598 14.3047 3.92639 14.3764 3.89655 14.448C3.87887 14.4904 3.86119 14.5334 3.84381 14.5759C3.79692 14.6908 3.75077 14.8078 3.70514 14.9256C3.65959 15.0431 3.61395 15.162 3.5694 15.283C3.52464 15.4045 3.48057 15.527 3.43659 15.6521C3.39272 15.7769 3.3488 15.9054 3.30475 16.0359C3.26175 16.1633 3.21348 16.3084 3.17096 16.4382C3.13988 16.5333 3.1009 16.6506 3.0694 16.7488C3.03648 16.8512 3.00519 16.9528 2.97467 17.0506C2.94413 17.1483 2.91483 17.2423 2.88776 17.3328C2.8849 17.3424 2.88181 17.3524 2.87897 17.3621C2.85524 17.4419 2.83311 17.5192 2.81256 17.5925C2.78952 17.6748 2.76816 17.7533 2.74909 17.8279C2.72811 17.9098 2.71612 17.9604 2.70221 18.0213C2.52536 18.8345 2.39015 19.8587 2.3487 20.8425C2.34322 20.9654 2.33907 21.0882 2.336 21.2097C2.33181 21.3795 2.32971 21.5497 2.33014 21.7205C2.33142 22.1996 2.35043 22.6701 2.38776 23.1453C2.42427 23.6097 2.4785 24.0783 2.54987 24.5388C2.65567 25.222 2.79986 25.898 2.98053 26.5642C3.09289 26.9784 3.21663 27.3805 3.35651 27.7849C3.7217 28.8401 4.18313 29.8657 4.73249 30.8445C5.28097 31.8221 5.92001 32.758 6.63678 33.6326C7.34998 34.5045 8.17174 35.3456 9.02936 36.0867C9.65829 36.6324 10.3354 37.1586 10.9903 37.6072C11.3425 37.8489 11.6957 38.0747 12.0508 38.2859C12.0518 38.2865 12.0528 38.2872 12.0538 38.2879C12.3646 38.4727 12.6797 38.6473 12.9952 38.8103C13.6742 39.1612 14.3648 39.4631 15.0733 39.7185C15.7804 39.9733 16.5024 40.1812 17.2423 40.3416C17.9753 40.5006 18.7367 40.6137 19.4893 40.6756C19.9625 40.7144 20.4246 40.7336 20.9024 40.7351C21.2078 40.736 21.5162 40.7362 21.8301 40.7361C22.9164 40.7355 23.9951 40.73 25.1026 40.7234C26.202 40.7166 27.3107 40.7085 28.4219 40.7C28.8104 40.697 29.2002 40.6942 29.5899 40.6912H29.5938C30.3146 40.6855 31.0376 40.68 31.7608 40.6746C32.8773 40.6662 33.9973 40.6576 35.1212 40.6511C36.2445 40.6447 37.3748 40.6394 38.5108 40.6375C39.6473 40.6357 40.8149 40.6371 41.9874 40.6472C43.0333 40.656 44.0875 40.6679 45.1182 40.6795C45.3903 40.6825 45.6626 40.6852 45.9346 40.6882C47.2262 40.7025 48.4774 40.7145 49.7139 40.7166C50.9493 40.7189 52.1839 40.7126 53.4298 40.699C54.672 40.6854 55.9302 40.6649 57.1983 40.6404C58.4718 40.6158 59.7292 40.5874 61.0118 40.5564C62.2846 40.5255 63.5632 40.4919 64.8575 40.4568C65.577 40.4374 66.3432 40.4202 67.0665 40.405C67.7966 40.3897 68.5221 40.3756 69.2383 40.3631C69.529 40.3579 69.8183 40.3534 70.1055 40.3484C70.5245 40.3412 70.94 40.3343 71.3487 40.3269C72.0385 40.3144 72.7115 40.3006 73.3653 40.2849C74.0188 40.2693 74.653 40.2515 75.2657 40.2293C75.8998 40.2061 76.4227 40.1818 77.0479 40.1482C78.5704 40.0834 79.5142 40.0641 80.5626 40.0418C80.7689 40.0374 80.9797 40.0321 81.1993 40.0271C82.4564 40.002 83.7127 39.9837 84.9522 39.9695C86.2035 39.9553 87.4351 39.9458 88.6827 39.9402C89.9183 39.9347 91.1638 39.933 92.4034 39.9353C93.6407 39.9376 94.8759 39.9441 96.1143 39.9539C97.3522 39.9636 98.6162 39.9772 99.8292 39.9939C100.53 40.0036 101.274 40.0169 101.966 40.03C102.465 40.0395 102.957 40.0495 103.44 40.0593C103.636 40.0633 103.832 40.0672 104.025 40.0711C104.669 40.084 105.296 40.0959 105.902 40.1052C105.924 40.1056 105.945 40.1059 105.966 40.1062C106.546 40.1137 107.105 40.0914 107.649 40.0427C108.196 39.9937 108.726 39.9183 109.253 39.8152C109.796 39.7074 110.246 39.5968 110.81 39.4256C111.176 39.3131 111.532 39.1914 111.882 39.0593C112.405 38.8619 112.915 38.6418 113.418 38.3963C113.919 38.1516 114.402 37.8862 114.873 37.5984C115.025 37.5059 115.183 37.4056 115.332 37.3084C115.793 37.0074 116.233 36.6893 116.656 36.3523C117.079 36.0157 117.483 35.663 117.866 35.2947C118.251 34.925 118.612 34.5446 118.961 34.1414C119.554 33.4559 120.082 32.7698 120.51 32.1472C120.944 31.5171 121.314 30.9056 121.641 30.2927C121.702 30.1781 121.762 30.0629 121.82 29.947C122.073 29.4473 122.298 28.945 122.495 28.4412C122.739 27.8197 122.941 27.1947 123.107 26.5613C123.273 25.9314 123.403 25.288 123.493 24.6482C123.584 24.0025 123.636 23.3813 123.653 22.7088C123.661 22.3845 123.66 22.0584 123.648 21.7205C123.635 21.3672 123.61 21.0108 123.573 20.6355C123.502 19.9093 123.382 19.1565 123.213 18.4041C123.045 17.6533 122.827 16.9039 122.567 16.1765C122.307 15.4487 122.001 14.7326 121.658 14.0506C121.313 13.3639 120.928 12.7032 120.507 12.0711C120.087 11.44 119.611 10.8162 119.132 10.2605C118.358 9.36045 117.497 8.54093 116.562 7.81325C115.631 7.08938 114.626 6.45569 113.568 5.93141C112.513 5.40785 111.403 4.99097 110.264 4.6902C109.123 4.38898 107.951 4.20371 106.771 4.13649C106.511 4.12167 106.249 4.11261 105.986 4.10914C105.959 4.10878 105.93 4.10841 105.902 4.10817C104.889 4.10051 103.877 4.09318 102.868 4.08571C102.861 4.08561 102.854 4.08483 102.847 4.08473C101.508 4.07493 100.194 4.06552 98.8663 4.05739C98.379 4.05448 97.9104 4.05186 97.4346 4.04957C96.9584 4.0473 96.4912 4.04606 96.0196 4.04469C95.5473 4.04333 95.0776 4.04178 94.6153 4.04176C94.1479 4.04179 93.6922 4.04268 93.2325 4.04469C92.8111 4.04646 92.3927 4.05018 91.9356 4.05348C91.8939 4.05379 91.8514 4.05415 91.8096 4.05446C91.3095 4.05809 90.7407 4.06003 90.212 4.05836C88.8111 4.05343 87.4457 4.05129 86.0557 4.05153C84.665 4.05175 83.2772 4.05457 81.878 4.05836C81.3316 4.05982 80.7826 4.06162 80.2335 4.06325C79.3793 4.06577 78.522 4.06811 77.6622 4.07008C76.2472 4.07335 74.8286 4.07502 73.4014 4.07301C71.98 4.07101 70.5493 4.06519 69.1251 4.05543C67.7018 4.04572 66.2656 4.03184 64.8487 4.01442C63.2702 3.99493 61.7005 3.9734 60.1241 3.95094C58.5502 3.92845 56.9751 3.90478 55.4073 3.88063C53.8338 3.85645 52.2644 3.83185 50.6944 3.80641C49.1233 3.78095 47.5527 3.7549 45.9815 3.72828C45.0414 3.71235 44.1015 3.69581 43.1612 3.67946C42.6637 3.69414 42.1864 3.70878 41.7276 3.72243C38.3368 3.82328 35.8849 3.89596 32.6505 3.94606C32.3407 3.95364 32.088 3.96427 31.7813 3.97731C31.7229 3.97979 31.6609 3.98247 31.5977 3.98512C31.197 4.00191 30.7369 4.01991 30.0967 4.03102C28.8196 4.05318 26.8618 4.04824 24.3321 3.90211C23.6931 3.8652 23.2862 3.69784 23.4239 3.52907C23.5209 3.41076 23.8605 3.32295 24.2745 3.29371C23.5092 3.27363 22.7456 3.25306 21.9844 3.23219C21.6809 3.22382 21.396 3.18449 21.1934 3.12282C20.9908 3.06104 20.8869 2.98158 20.9044 2.90114C20.9221 2.82075 21.0603 2.74509 21.2882 2.6902C21.5161 2.63538 21.8151 2.6059 22.1202 2.60719C22.9299 2.61077 23.7369 2.6144 24.544 2.61696C25.3517 2.61955 26.1557 2.62106 26.962 2.62184C27.7681 2.62263 28.5745 2.62253 29.3829 2.62184C30.188 2.62112 30.9947 2.61971 31.8028 2.61793C32.6162 2.61619 33.4146 2.61364 34.2257 2.6111C34.7116 2.60954 35.2038 2.60801 35.6866 2.60621C35.8665 2.6056 36.0422 2.60493 36.2178 2.60426C36.3614 2.60371 36.5059 2.60381 36.6544 2.60328C38.2171 2.59715 39.7949 2.59023 41.3585 2.58278C42.9295 2.57536 44.499 2.56758 46.0684 2.55934C47.6387 2.5511 49.2078 2.54189 50.7774 2.53297C52.3463 2.52405 53.9145 2.51525 55.4854 2.50563C57.0504 2.49597 58.6219 2.48603 60.1895 2.47536C61.4022 2.46711 62.6053 2.45745 63.8096 2.44801C64.2836 2.43187 64.7529 2.41679 65.2159 2.40211C66.5638 2.35937 67.9136 2.30339 69.2432 2.24782C66.8765 2.27545 64.9752 2.31892 63.1651 2.36012C62.9226 2.36564 62.6817 2.37132 62.4415 2.37672C59.9881 2.43193 57.6176 2.47792 54.4298 2.46754C45.3632 2.43803 40.106 2.41692 36.8301 2.37672C33.5549 2.33653 32.1474 2.27739 30.834 2.15895C28.9782 1.99159 25.3967 1.89589 23.5967 1.89235C22.9429 1.89107 22.4151 1.74968 22.418 1.57692C22.4217 1.40425 22.954 1.26514 23.6075 1.26637C25.5079 1.2701 29.3838 1.36701 31.5928 1.56618C32.5767 1.65491 33.7085 1.71214 36.9337 1.75172C40.1593 1.7913 45.3682 1.81297 54.4522 1.84254C57.5253 1.85255 59.8062 1.80731 62.2335 1.7527C62.4715 1.74734 62.7114 1.7416 62.9532 1.7361H62.9581C65.1876 1.68533 67.6152 1.63071 70.8887 1.60621C78.4341 1.54976 88.5839 1.43945 90.9942 1.3777C91.4669 1.36558 91.9244 1.35288 92.4063 1.33864C94.257 1.28394 96.4916 1.21741 101.526 1.1736C102.628 1.16402 103.918 1.15857 105.325 1.15602C105.518 1.14833 105.711 1.14113 105.902 1.13356C107.869 1.05526 109.778 1.27806 111.414 1.68629C112.967 2.0721 114.37 2.5676 115.683 3.16871C116.06 3.34173 116.437 3.52824 116.807 3.72438C117.7 4.19828 118.562 4.73995 119.357 5.33473C119.99 5.80888 120.633 6.3369 121.275 6.93922C123.579 9.11789 126.113 12.3723 127.165 17.3972C127.466 18.8787 127.595 20.3304 127.591 21.7205C127.58 25.3062 126.682 28.4648 125.427 31.03C126.715 28.4048 127.237 26.167 127.509 24.3035C127.559 23.949 127.599 23.6128 127.63 23.2849C127.682 22.7292 127.71 22.2171 127.721 21.7205C127.751 20.15 127.629 18.8327 127.364 17.4744C125.258 8.97945 121.918 6.85237 119.215 4.63258C118.435 4.07556 117.533 3.52185 116.523 3.01344C114.504 1.99457 112.033 1.1704 109.319 0.810316C108.237 0.665214 107.089 0.601816 105.902 0.642347C104.402 0.696127 102.826 0.757222 101.198 0.820082H101.195C100.639 0.841581 100.075 0.86374 99.5069 0.885511C96.0422 1.01827 92.3981 1.15199 88.8506 1.2361C88.4713 1.24509 88.0168 1.25695 87.4952 1.27125C84.4834 1.35383 79.1953 1.49898 72.7383 1.40602C71.3203 1.38559 69.8467 1.34227 68.1651 1.29274C67.6529 1.27765 67.1208 1.26161 66.5655 1.24586C64.1684 1.17786 61.2559 1.10574 57.378 1.06227C54.1775 1.02639 50.2769 1.00901 46.2266 0.99098C44.2317 0.982101 42.2002 0.973179 40.1983 0.961683C34.1508 0.926957 28.6075 0.87133 23.0753 0.816176H23.0723C22.4188 0.80966 21.9068 0.664646 21.9298 0.491957C21.953 0.319361 22.5011 0.184723 23.1544 0.191176C28.6899 0.246362 34.2159 0.301096 40.2432 0.335707C42.2148 0.347028 44.2306 0.356153 46.2178 0.365004C50.2877 0.38313 54.2425 0.401059 57.4727 0.437269C61.4167 0.481483 64.3825 0.554856 66.8126 0.623793C67.3979 0.640397 67.9484 0.656264 68.4708 0.671644C70.1338 0.720603 71.5163 0.761649 72.8614 0.781019C79.113 0.871024 84.2006 0.731829 87.2237 0.649183C87.7599 0.634525 88.2316 0.621588 88.6329 0.612074C92.1106 0.529622 95.6988 0.398999 99.1602 0.266371C99.7217 0.244858 100.281 0.223325 100.835 0.201918C100.836 0.201816 100.838 0.201043 100.839 0.200941C102.582 0.133633 104.283 0.0687824 105.902 0.011488ZM73.9893 42.7019C73.2315 42.7107 72.4927 42.7156 71.7686 42.7195C71.2601 42.7222 70.7571 42.7243 70.2618 42.7263C70.0528 42.7272 69.8436 42.7284 69.6368 42.7293C69.2903 42.7308 68.946 42.7323 68.6046 42.7341C70.9998 42.753 73.3413 42.7677 75.7813 42.7722C75.8134 42.7723 75.8456 42.7722 75.878 42.7722C75.5087 42.7446 75.1476 42.7176 74.795 42.6912C74.5243 42.6953 74.2553 42.6988 73.9893 42.7019ZM84.1075 42.5183C84.9398 42.5341 85.804 42.5476 86.7169 42.5613C87.446 42.5722 88.207 42.5828 89.0069 42.5965C89.3129 42.6017 89.6833 42.6105 90.1153 42.6199C91.828 42.657 94.5157 42.7144 98.0499 42.7039C98.5958 42.7022 99.3957 42.6975 100.427 42.6912C100.671 42.6897 100.928 42.6879 101.197 42.6863C101.191 42.6861 101.184 42.6864 101.178 42.6863C100.51 42.6703 99.8932 42.6562 99.2276 42.6433C98.0413 42.6205 96.8887 42.6015 95.7247 42.5847C94.556 42.5679 93.3904 42.5537 92.2237 42.5427C91.0552 42.5318 89.8832 42.524 88.7217 42.5193C87.5488 42.5146 86.392 42.5132 85.2247 42.5154C84.853 42.5161 84.4802 42.5168 84.1075 42.5183ZM118.453 5.47047C120.078 6.73659 121.361 8.14744 122.282 9.38746C124.99 13.147 125.548 15.8493 125.955 18.0789C126.06 18.7358 126.129 19.3695 126.171 20.0164C126.236 20.5513 126.282 21.1063 126.302 21.6746C126.302 21.6897 126.302 21.7053 126.303 21.7205C126.329 22.5029 126.306 23.3426 126.232 24.1423C126.157 24.9585 126.028 25.7864 125.849 26.5886C125.669 27.3974 125.438 28.1889 125.161 28.9588C124.9 29.6841 124.597 30.3901 124.267 31.0574C124.248 31.0954 124.229 31.1337 124.21 31.1716C123.858 31.8742 123.472 32.538 123.093 33.1306C122.706 33.7343 122.36 34.2202 122.047 34.6482C121.656 35.1825 121.225 35.7113 120.773 36.2117C120.321 36.7127 119.844 37.1894 119.346 37.6404C118.846 38.0922 118.328 38.5156 117.788 38.9138C117.613 39.0427 117.428 39.1746 117.251 39.2966C117.169 39.3529 117.087 39.4087 117.005 39.4636C118.119 38.7677 119.212 37.9398 120.243 36.9773C121.73 35.5872 123.14 33.8945 124.319 31.7947C125.816 29.1215 126.948 25.7347 126.965 21.7205C126.969 20.3806 126.847 18.9758 126.555 17.533C125.588 12.9414 123.418 9.98367 121.259 7.81129C120.626 7.1839 119.975 6.61784 119.306 6.09547C119.028 5.87886 118.744 5.67134 118.453 5.47047ZM25.4581 3.32399C27.0308 3.40239 28.3124 3.41907 29.2667 3.41383C28.4561 3.39602 27.6472 3.37751 26.838 3.35817C26.3776 3.34717 25.9178 3.33557 25.4581 3.32399ZM104.749 1.81227C105.133 1.80962 105.518 1.80696 105.902 1.80446C106.23 1.80233 106.555 1.80856 106.878 1.82203C107.749 1.85848 108.611 1.95086 109.469 2.10036C108.248 1.87753 107.04 1.77924 105.902 1.78102C105.774 1.78117 105.646 1.78081 105.519 1.78102C105.264 1.7912 105.007 1.80192 104.749 1.81227Z" fill="black"/>
</svg>
